<svg width="512" height="512" viewBox="0 0 512 512" fill="none" xmlns="http://www.w3.org/2000/svg">
<g clip-path="url(#clip0_2724_39)">
<rect width="512" height="512" fill="white"/>
<path d="M241.133 366.256C232.312 366.256 227.901 361.531 227.901 352.079V109.383C227.901 99.9325 232.312 95.207 241.133 95.207H311.835C357.202 95.207 388.645 102.579 406.164 117.322C423.807 132.065 432.63 152.983 432.63 180.075C432.63 207.167 423.807 228.085 406.164 242.828C388.645 257.572 357.202 264.944 311.835 264.944H283.1V352.079C283.1 361.531 278.689 366.256 269.867 366.256H241.133ZM283.1 218.823H311.645C336.849 218.823 353.989 215.861 363.063 209.939C372.138 203.891 376.674 193.936 376.674 180.075C376.674 166.214 372.138 156.322 363.063 150.4C353.989 144.351 336.849 141.327 311.645 141.327H283.1V218.823Z" fill="#004CBD"/>
<mask id="mask0_2724_39" style="mask-type:luminance" maskUnits="userSpaceOnUse" x="64" y="95" width="207" height="173">
<path d="M270.48 95.2812H64V267.328H270.48V95.2812Z" fill="white"/>
</mask>
<g mask="url(#mask0_2724_39)">
<path d="M256.811 -5.79688C265.633 -5.79688 270.044 -1.07141 270.044 8.37931V251.075C270.044 260.527 265.633 265.251 256.811 265.251H186.11C140.741 265.251 109.298 257.879 91.7803 243.137C74.1367 228.393 65.3149 207.476 65.3149 180.384C65.3149 153.291 74.1367 132.374 91.7803 117.63C109.298 102.887 140.741 95.5156 186.11 95.5156H214.844V8.37931C214.844 -1.07141 219.255 -5.79688 228.077 -5.79688H256.811ZM214.844 141.635H186.3C161.095 141.635 143.955 144.597 134.881 150.519C125.807 156.568 121.27 166.522 121.27 180.384C121.27 194.246 125.807 204.136 134.881 210.059C143.955 216.108 161.095 219.132 186.3 219.132H214.844V141.635Z" fill="#004CBD"/>
</g>
<mask id="mask1_2724_39" style="mask-type:luminance" maskUnits="userSpaceOnUse" x="227" y="93" width="207" height="173">
<path d="M227.464 265.178H433.944V93.1314L227.464 93.1314L227.464 265.178Z" fill="white"/>
</mask>
<g mask="url(#mask1_2724_39)">
<path d="M241.133 366.255C232.311 366.255 227.9 361.53 227.9 352.079V109.384C227.9 99.9319 232.311 95.207 241.133 95.207H311.834C357.202 95.207 388.645 102.579 406.164 117.321C423.807 132.066 432.63 152.983 432.63 180.075C432.63 207.166 423.807 228.085 406.164 242.827C388.645 257.571 357.202 264.944 311.834 264.944H283.099V352.079C283.099 361.53 278.689 366.255 269.867 366.255H241.133ZM283.099 218.822H311.645C336.849 218.822 353.989 215.861 363.063 209.94C372.138 203.891 376.674 193.936 376.674 180.075C376.674 166.214 372.138 156.322 363.063 150.399C353.989 144.35 336.849 141.326 311.645 141.326H283.099V218.822Z" fill="#004CBD"/>
</g>
<path d="M227.791 366.329C218.97 366.329 214.559 361.604 214.559 352.153V109.458C214.559 100.006 218.97 95.2812 227.791 95.2812H298.491C343.861 95.2812 375.304 102.654 392.822 117.396C410.466 132.14 419.288 153.057 419.288 180.149C419.288 207.242 410.466 228.159 392.822 242.903C375.304 257.645 343.861 265.018 298.491 265.018H269.758V352.153C269.758 361.604 265.347 366.329 256.525 366.329H227.791ZM269.758 218.896H298.304C323.507 218.896 340.647 215.937 349.722 210.014C358.796 203.965 363.332 194.01 363.332 180.149C363.332 166.288 358.796 156.396 349.722 150.474C340.647 144.424 323.507 141.401 298.304 141.401H269.758V218.896Z" fill="#1677FF"/>
</g>
<defs>
<clipPath id="clip0_2724_39">
<rect width="512" height="512" fill="white"/>
</clipPath>
</defs>
</svg>
